<?xml version="1.0" encoding="UTF-8"?>
<svg id="cXH9iBpzh" viewBox="0 0 349.99999999999994 41.97470201398095" height="41.97470201398095" width="349.99999999999994" xmlns="http://www.w3.org/2000/svg">
  <defs id="SvgjsDefs1110"></defs>
  <g id="SvgjsG1111" featurekey="K5GtsI-0" transform="matrix(2.874979514881048,0,0,2.874979514881048,-2.817479293970779,-16.44488222192489)" fill="#eee">
    <path d="M3.62 20 l-2.64 0 l0 -13.98 l10.06 0 l0 2.54 l-7.42 0 l0 3.82 l7.02 0 l0 2.44 l-7.02 0 l0 5.18 z M19.86 5.720000000000001 c4.82 0 7.22 3.7 7.18 7.36 c-0.04 3.62 -2.26 7.24 -7.18 7.24 s-7.2 -3.54 -7.2 -7.22 s2.36 -7.38 7.2 -7.38 z M19.86 8.12 c-3.3 0 -4.66 2.66 -4.6 5.02 c0.06 2.3 1.3 4.76 4.6 4.76 s4.54 -2.48 4.58 -4.78 c0.04 -2.36 -1.28 -5 -4.58 -5 z M41.4 19.82 l0 0.18 l-3.14 0 l-4.08 -4.68 l-2.54 0 l0 4.68 l-2.64 0 l0 -14.02 c2.22 0 4.44 0.02 6.66 0.02 c3.3 0.02 5.04 2.22 5.04 4.64 c0 1.92 -0.88 3.86 -3.54 4.4 z M35.66 8.46 l-4.02 0 l0 4.48 l4.02 0 c1.68 0 2.4 -1.12 2.4 -2.24 s-0.74 -2.24 -2.4 -2.24 z M46.72 20 l0 -11.6 l-4.44 0 l0 -2.4 l11.52 0 l0 2.4 l-4.44 0 l0 11.6 l-2.64 0 z M65.48 6.02 l2.62 0 l0 8.02 c0 4.14 -2.54 6.26 -6.06 6.26 c-3.36 0 -6.22 -2.04 -6.22 -6.26 l0 -8.02 l2.62 0 l0 8.02 c0 2.52 1.44 3.86 3.62 3.86 s3.42 -1.46 3.42 -3.86 l0 -8.02 z M73.32000000000001 8.5 l0 4.96 l3.96 0 c3.38 0 3.36 -4.96 0 -4.96 l-3.96 0 z M77.28 5.98 c6.84 0 6.86 9.9 0 9.9 l-3.96 0 l0 4.12 l-2.64 0 l0 -14 c2.2 0 4.4 -0.02 6.6 -0.02 z M84.2 6 l2.64 0 l0 11.56 l7.2 0 l0 2.44 l-9.84 0 l0 -14 z M107.02 20 l-1.18 -2.64 l-7.32 0 l-1.2 2.64 l-2.86 0 l6.28 -14 l2.88 0 l6.28 14 l-2.88 0 z M104.78 14.9 l-2.6 -5.96 l-2.6 5.96 l5.2 0 z M120.08000000000001 14.68 l0 -8.7 l2.64 0 l0 14.02 l-1.64 0 l0 0.02 l-7.36 -9.46 l0 9.44 l-2.64 0 l0 -14 l2.14 0 z"></path>
  </g>
</svg>
